<?xml version="1.0" encoding="UTF-8"?>
<svg version="1.1" xmlns="http://www.w3.org/2000/svg" width="500" height="500">
<path d="M0 0 C4.86778642 2.56289815 7.27787128 5.83855939 9 11 C9.251849 14.03783554 9.251849 14.03783554 9.25447559 17.50184536 C9.25768207 18.14402226 9.26088855 18.78619915 9.26419219 19.44783595 C9.27250189 21.60239473 9.26656464 23.75667623 9.26069641 25.91123962 C9.26371665 27.47045515 9.26760549 29.02966919 9.27228898 30.5888806 C9.28259408 34.87582054 9.28038078 39.16267708 9.27610838 43.44962394 C9.27364573 48.0720618 9.28264957 52.69447933 9.29014587 57.31690979 C9.30290754 66.37346193 9.30468475 75.42998445 9.30234561 84.48654407 C9.300564 91.84621729 9.30230872 99.20588151 9.30657005 106.56555367 C9.30716524 107.61223043 9.30776043 108.65890719 9.30837366 109.73730143 C9.30958538 111.86348537 9.31079952 113.98966932 9.31201603 116.11585326 C9.32289714 136.06354304 9.32072633 156.01121592 9.31463119 175.95890666 C9.30946101 194.2160274 9.32071913 212.4730948 9.33972941 230.73020499 C9.3590912 249.46826294 9.36736676 268.20629563 9.36360615 286.94436365 C9.36169165 297.46772266 9.36420591 307.99103626 9.37832069 318.51438713 C9.39021431 327.47252849 9.39166209 336.43059648 9.37953053 345.3887388 C9.37362774 349.96059114 9.37258097 354.53230916 9.38453293 359.10415268 C9.39534404 363.28815967 9.39234558 367.47191942 9.37827124 371.65591461 C9.37561111 373.1706666 9.37803193 374.68543766 9.38600711 376.20017099 C9.39609018 378.25785118 9.38771199 380.31466807 9.37473011 382.3723135 C9.37481263 384.08724189 9.37481263 384.08724189 9.37489682 385.8368153 C8.78031386 390.85359753 6.77717818 394.10624509 3.5 397.875 C-0.16009869 400.70242624 -3.88819615 400.64133823 -8.375 400.421875 C-13.28258983 399.63315521 -15.95696492 397.43866908 -18.8125 393.5 C-20.87804699 389.15148002 -21.12612656 385.49614836 -21.13142776 380.68925858 C-21.13526891 379.38343803 -21.13911005 378.07761748 -21.1430676 376.73222661 C-21.14228735 375.27959389 -21.14140856 373.82696122 -21.14044189 372.37432861 C-21.14302542 370.83390184 -21.14603854 369.29347574 -21.1494453 367.75305057 C-21.15752001 363.51334091 -21.15930513 359.27364817 -21.16004276 355.03393173 C-21.16189249 350.46393122 -21.16943941 345.89393952 -21.17617798 341.32394409 C-21.18976505 331.32809603 -21.19578657 321.33225198 -21.20018864 311.33639622 C-21.20295036 305.0962395 -21.20718758 298.85608432 -21.21169281 292.61592865 C-21.22388583 275.34239931 -21.23418517 258.06887122 -21.2375679 240.79533768 C-21.23778747 239.68960405 -21.23800703 238.58387042 -21.23823325 237.44462971 C-21.23856067 235.782038 -21.23856067 235.782038 -21.2388947 234.08585858 C-21.23933817 231.83979114 -21.23978473 229.59372369 -21.24023438 227.34765625 C-21.2404558 226.23352681 -21.24067723 225.11939738 -21.24090537 223.97150645 C-21.24485391 205.91613823 -21.26230946 187.86081037 -21.2855939 169.80545774 C-21.30930081 151.2730875 -21.32176945 132.74073751 -21.32293582 114.20835185 C-21.32385294 103.80116374 -21.32961453 93.3940282 -21.34775543 82.98685455 C-21.36314748 74.12536914 -21.36828216 65.26395255 -21.36001733 56.40245631 C-21.35610769 51.88099062 -21.35705574 47.35966355 -21.37107468 42.83821487 C-21.38379465 38.69786184 -21.38263286 34.55775187 -21.37048396 30.41739926 C-21.36852367 28.92074881 -21.37162078 27.42408126 -21.38032833 25.92745486 C-21.45746481 11.77157315 -21.45746481 11.77157315 -18 5 C-12.45833794 -0.27133708 -7.49502403 -1.0943148 0 0 Z " fill="#FDFDFD" transform="translate(256,50)"/>
<path d="M0 0 C4.36494543 1.95504869 6.95397827 3.7219066 8.88671875 8.26953125 C9.69832374 11.03248565 10.01302237 13.49008653 10.01814651 16.36539936 C10.02198766 17.17719444 10.0258288 17.98898951 10.02978635 18.82538444 C10.02891987 19.71165824 10.02805338 20.59793204 10.02716064 21.51106262 C10.03013177 22.45692551 10.03310289 23.40278839 10.03616405 24.37731379 C10.04485302 27.55469271 10.04635946 30.73203396 10.04785156 33.90942383 C10.05247956 36.18434225 10.0575042 38.4592599 10.06289673 40.73417664 C10.0760237 46.92016262 10.08246617 53.10613774 10.08690739 59.29213548 C10.08983738 63.15565719 10.09394202 67.01917593 10.09841156 70.88269615 C10.11051982 81.58263085 10.1209023 92.28256192 10.12428665 102.98250294 C10.12450622 103.66708733 10.12472578 104.35167172 10.124952 105.0570011 C10.12517028 105.74320841 10.12538856 106.42941573 10.12561345 107.13641721 C10.12605691 108.52689858 10.12650348 109.91737996 10.12695312 111.30786133 C10.12717455 111.99758578 10.12739598 112.68731022 10.12762412 113.39793541 C10.13157204 124.57360653 10.1490267 135.74921244 10.17231265 146.92485837 C10.19603469 158.40256135 10.20823096 169.88021696 10.20965457 181.35794753 C10.21070347 187.80074587 10.21662947 194.24345221 10.23447418 200.6862278 C10.25093194 206.74613958 10.25312144 212.80588998 10.24433517 218.86581612 C10.2435636 221.08982525 10.24792334 223.31384298 10.25779343 225.53783035 C10.27047949 228.5744294 10.26465403 231.61045399 10.25421143 234.64704895 C10.26226783 235.52663059 10.27032423 236.40621222 10.27862477 237.31244785 C10.22711541 243.71897465 9.1786649 248.53398262 4.94921875 253.58203125 C1.0282879 256.79006558 -1.81008856 257.74896788 -7.0234375 257.57421875 C-10.72656738 257.03432318 -13.29210923 255.69532991 -16.11328125 253.26953125 C-20.12338946 247.63638483 -20.68941612 242.21705093 -20.62121582 235.4777832 C-20.62745578 234.52104108 -20.63369575 233.56429895 -20.6401248 232.57856464 C-20.65601836 229.38805966 -20.64346449 226.19832251 -20.63085938 223.0078125 C-20.63628209 220.71421871 -20.64340558 218.4206284 -20.65209961 216.12704468 C-20.6703179 209.90808428 -20.6632714 203.68938964 -20.65058327 197.47042465 C-20.64044798 190.95854736 -20.64985043 184.44669265 -20.65612793 177.93481445 C-20.66386858 166.2996073 -20.65144707 154.6645213 -20.63109058 143.02933323 C-20.61322061 132.48922224 -20.61632504 121.9492875 -20.63476562 111.40917969 C-20.65619294 99.1562801 -20.66412848 86.90350595 -20.65231657 74.65058804 C-20.64608421 68.16924751 -20.6452391 61.68802827 -20.65846252 55.20669556 C-20.6700269 49.11300207 -20.66198403 43.01964104 -20.6388855 36.92598343 C-20.63360162 34.69111304 -20.63510664 32.45621463 -20.64393616 30.22135544 C-20.65488752 27.16762047 -20.64113213 24.11494687 -20.62121582 21.0612793 C-20.63013871 20.17955709 -20.63906159 19.29783487 -20.64825487 18.38939381 C-20.57558213 12.63388709 -19.50912206 8.01513278 -16.11328125 3.26953125 C-11.36538141 -0.91907388 -6.01264696 -2.07830865 0 0 Z " fill="#FDFDFD" transform="translate(198.11328125,121.73046875)"/>
<path d="M0 0 C4.8317721 2.61038535 7.37468694 5.08890456 9.09375 10.24609375 C9.18503423 11.58973693 9.22282175 12.93743845 9.22517776 14.28417683 C9.22901891 15.10853113 9.23286005 15.93288544 9.2368176 16.78222018 C9.23595112 17.68765274 9.23508463 18.59308529 9.23419189 19.5259552 C9.23716302 20.48800344 9.24013414 21.45005167 9.2431953 22.44125289 C9.2518979 25.67934982 9.25339186 28.91740986 9.25488281 32.15551758 C9.25950986 34.47131937 9.26453437 36.7871204 9.26992798 39.10292053 C9.28306443 45.40459738 9.2894993 51.70626357 9.29393864 58.00795197 C9.29686721 61.9426521 9.30097159 65.8773493 9.30544281 69.81204796 C9.31755296 80.70581486 9.32793471 91.59957854 9.3313179 102.49335194 C9.33153747 103.19059346 9.33175703 103.88783498 9.33198325 104.60620503 C9.33220153 105.3051157 9.33241981 106.00402637 9.3326447 106.72411615 C9.33308817 108.14037756 9.33353473 109.55663898 9.33398438 110.97290039 C9.3342058 111.67541511 9.33442723 112.37792983 9.33465537 113.10173287 C9.33860342 124.48507143 9.35605769 135.86834596 9.3793439 147.25165979 C9.40305782 158.93837564 9.41526178 170.6250562 9.41668582 182.31179637 C9.41773526 188.87362557 9.42367278 195.43536451 9.44150543 201.9971714 C9.45795083 208.16869145 9.46015874 214.34005303 9.45136642 220.51158714 C9.45059417 222.77794188 9.45496343 225.04430501 9.46482468 227.31063843 C9.47748948 230.40237615 9.47169689 233.49354793 9.46124268 236.58528137 C9.46929908 237.48402176 9.47735548 238.38276215 9.48565602 239.3087371 C9.4455523 244.37310899 8.91190809 247.86217141 6.09375 252.24609375 C2.4138484 255.65000273 -0.17153618 257.11517195 -5.21875 257.49609375 C-10.30417403 257.15131924 -13.39268296 255.5551247 -17.21875 252.24609375 C-19.68412128 249.32417223 -20.03128355 246.86297478 -20.03767776 243.17398262 C-20.04343948 241.92607592 -20.04343948 241.92607592 -20.0493176 240.65295899 C-20.04845112 239.73906242 -20.04758463 238.82516585 -20.04669189 237.88357544 C-20.04966302 236.91265453 -20.05263414 235.94173362 -20.0556953 234.94139087 C-20.06439818 231.67332097 -20.06589188 228.40528762 -20.06738281 225.13720703 C-20.07200981 222.80007855 -20.07703431 220.46295082 -20.08242798 218.12582397 C-20.09556419 211.76636487 -20.10199916 205.40691633 -20.10643864 199.04744577 C-20.10936701 195.0772414 -20.11347133 191.10703992 -20.11794281 187.13683701 C-20.13005248 176.14613285 -20.1404346 165.15543123 -20.1438179 154.16472054 C-20.14414725 153.10957808 -20.14414725 153.10957808 -20.14448325 152.03311961 C-20.14470153 151.32800359 -20.14491981 150.62288756 -20.1451447 149.89640439 C-20.14558817 148.46755735 -20.14603473 147.03871032 -20.14648438 145.60986328 C-20.1467058 144.90110502 -20.14692723 144.19234676 -20.14715537 143.46211098 C-20.1511044 131.97463272 -20.16856192 120.48721786 -20.1918439 108.9997641 C-20.21555 97.20796305 -20.22801939 85.41619382 -20.22918582 73.62436855 C-20.23010294 67.00277379 -20.23618241 60.38125207 -20.25400543 53.75967789 C-20.27043886 47.53316938 -20.27266462 41.30681797 -20.26386642 35.08029556 C-20.26309355 32.79255758 -20.26747156 30.50481132 -20.27732468 28.21709442 C-20.28996979 25.09873367 -20.28420775 21.98093561 -20.27374268 18.86257935 C-20.28179908 17.95314422 -20.28985548 17.04370909 -20.29815602 16.10671532 C-20.26045904 11.31780752 -20.01798883 8.13194261 -16.90625 4.24609375 C-11.95557714 -0.20951182 -6.64781453 -2.62915616 0 0 Z " fill="#FEFEFD" transform="translate(312.90625,121.75390625)"/>
<path d="M0 0 C3.74336125 1.31697604 6.3952666 3.23400436 8.875 6.375 C10.91367602 11.13191072 11.12538533 15.93424859 11.13371277 21.05856323 C11.13797775 22.25005981 11.14224274 23.4415564 11.14663696 24.66915894 C11.14618378 25.96282379 11.14573059 27.25648865 11.14526367 28.58935547 C11.14825841 29.97625824 11.15166166 31.36316018 11.15544128 32.75006104 C11.16425302 36.50632592 11.16661819 40.262568 11.16725707 44.01884222 C11.16796913 46.36843062 11.17010638 48.71801328 11.17275429 51.06760025 C11.18199804 59.27244686 11.18609035 67.47727726 11.18530273 75.68212891 C11.18470206 83.31768091 11.1952544 90.95316224 11.2110464 98.58869636 C11.22414142 105.15534575 11.22948581 111.72197208 11.22884732 118.28863442 C11.22859293 122.20569161 11.2314116 126.12268594 11.24202538 130.03973007 C11.25173955 133.72515737 11.2517629 137.41046213 11.24450874 141.09589386 C11.24297247 143.08386329 11.25128623 145.07183279 11.25994873 147.05978394 C11.2064488 162.32903566 11.2064488 162.32903566 6.625 167.875 C2.15338947 171.49487519 -1.05764145 172.45138655 -6.75 172.3203125 C-11.18003397 171.68964794 -13.94673849 169.19853896 -16.8125 165.9375 C-19.0657178 162.26119727 -19.12900066 159.19893373 -19.14044189 154.98503113 C-19.14615204 153.72745499 -19.15186218 152.46987885 -19.15774536 151.17419434 C-19.15899071 149.77783213 -19.16011581 148.38146981 -19.16113281 146.98510742 C-19.16576144 145.51658503 -19.17078616 144.04806385 -19.17617798 142.57954407 C-19.1892999 138.58771108 -19.19574655 134.59589491 -19.20018864 130.60404372 C-19.20311976 128.10992631 -19.20722465 125.61581348 -19.21169281 123.12169838 C-19.22536733 115.31768826 -19.23503415 107.51368865 -19.2388947 99.70966738 C-19.24337518 90.70202066 -19.26092272 81.69452569 -19.2898953 72.68692511 C-19.3115143 65.72376799 -19.3215991 58.76065356 -19.32293582 51.79746324 C-19.32398371 47.63894048 -19.32988812 43.4805604 -19.34775543 39.32207298 C-19.3642399 35.40930031 -19.36638989 31.4967775 -19.35761642 27.58398247 C-19.35684624 26.1497048 -19.36118636 24.71541368 -19.37107468 23.28116989 C-19.38380392 21.3194608 -19.37612212 19.35765121 -19.36749268 17.3959198 C-19.36895924 16.29919543 -19.3704258 15.20247107 -19.3719368 14.07251263 C-18.78101734 9.19101792 -17.0701764 5.96576894 -13.4375 2.6875 C-8.95057792 -0.41883067 -5.37415177 -0.63328793 0 0 Z " fill="#FDFDFD" transform="translate(140,164)"/>
<path d="M0 0 C4.90155369 2.40453577 7.31306811 5.30769954 10 10 C10.50336456 13.09536743 10.50336456 13.09536743 10.50793457 16.45166016 C10.52485352 18.36945282 10.52485352 18.36945282 10.54211426 20.32598877 C10.53433817 21.73034897 10.52614557 23.13470691 10.51757812 24.5390625 C10.52300216 26.02773726 10.5301264 27.51640665 10.53881836 29.00506592 C10.5570215 33.03817712 10.54999682 37.07087809 10.53730202 41.10399628 C10.52715866 45.32927029 10.5365714 49.55450973 10.54284668 53.77978516 C10.55011921 60.87473848 10.54054579 67.96952512 10.52148438 75.06445312 C10.49971631 83.26137207 10.50676797 91.45789302 10.52879 99.65480232 C10.54695529 106.6987301 10.54949682 113.74253822 10.53903532 120.78648186 C10.53280657 124.9907979 10.53194764 129.194927 10.54518127 133.39923096 C10.55675569 137.35237462 10.54868549 141.3050063 10.52560425 145.25809479 C10.52032558 146.70687257 10.52181657 148.1556936 10.53065491 149.60445404 C10.54162545 151.58573341 10.52541319 153.5671072 10.50793457 155.54833984 C10.50642647 156.65591644 10.50491837 157.76349304 10.50336456 158.90463257 C9.68252626 163.95225874 7.07461305 167.05034195 3.3125 170.375 C-0.97133409 172.47650352 -4.31355821 172.82454452 -9 172 C-13.90155369 169.59546423 -16.31306811 166.69230046 -19 162 C-19.50336456 158.90463257 -19.50336456 158.90463257 -19.50793457 155.54833984 C-19.51921387 154.2698114 -19.53049316 152.99128296 -19.54211426 151.67401123 C-19.53433817 150.26965103 -19.52614557 148.86529309 -19.51757812 147.4609375 C-19.52300216 145.97226274 -19.5301264 144.48359335 -19.53881836 142.99493408 C-19.5570215 138.96182288 -19.54999682 134.92912191 -19.53730202 130.89600372 C-19.52715866 126.67072971 -19.5365714 122.44549027 -19.54284668 118.22021484 C-19.55011921 111.12526152 -19.54054579 104.03047488 -19.52148438 96.93554688 C-19.49971631 88.73862793 -19.50676797 80.54210698 -19.52879 72.34519768 C-19.54695529 65.3012699 -19.54949682 58.25746178 -19.53903532 51.21351814 C-19.53280657 47.0092021 -19.53194764 42.805073 -19.54518127 38.60076904 C-19.55675569 34.64762538 -19.54868549 30.6949937 -19.52560425 26.74190521 C-19.52032558 25.29312743 -19.52181657 23.8443064 -19.53065491 22.39554596 C-19.54162545 20.41426659 -19.52541319 18.4328928 -19.50793457 16.45166016 C-19.50642647 15.34408356 -19.50491837 14.23650696 -19.50336456 13.09536743 C-18.68252626 8.04774126 -16.07461305 4.94965805 -12.3125 1.625 C-8.02866591 -0.47650352 -4.68644179 -0.82454452 0 0 Z " fill="#FDFDFC" transform="translate(369,164)"/>
<path d="M0 0 C3.80012248 2.18770377 6.33180966 4.93758346 8 9 C8.26006222 10.97190571 8.26006222 10.97190571 8.27415466 13.07844543 C8.28911736 14.28315742 8.28911736 14.28315742 8.30438232 15.51220703 C8.305047 16.38449951 8.30571167 17.25679199 8.30639648 18.15551758 C8.31472 19.08120041 8.32304352 20.00688324 8.33161926 20.96061707 C8.35572187 24.02196455 8.36449199 27.08309893 8.37109375 30.14453125 C8.38006027 32.27438928 8.38918212 34.40424666 8.39845276 36.53410339 C8.4149463 41.00037161 8.42264348 45.46656483 8.42553711 49.93286133 C8.43091951 55.64947374 8.46859261 61.36537907 8.51428127 67.08179188 C8.54405844 71.48193419 8.55126083 75.88190642 8.55226326 80.28214073 C8.55646466 82.38924076 8.56889566 84.49634134 8.58978081 86.60334206 C8.61670654 89.55485276 8.61186574 92.50472707 8.59936523 95.45629883 C8.61419952 96.32251862 8.62903381 97.1887384 8.64431763 98.08120728 C8.58157788 103.29643702 7.63189888 106.45233104 4.4388895 110.60285473 C1.08765988 113.85686041 -2.69263952 115.02737546 -7.3046875 114.97265625 C-12.8073143 114.1481886 -15.57034858 112.02998741 -18.90625 107.65625 C-21.53713634 103.6723364 -21.16252924 99.88818518 -21.17700195 95.25512695 C-21.18357315 94.34924332 -21.19014435 93.44335968 -21.19691467 92.51002502 C-21.21667454 89.50277631 -21.22831746 86.49557764 -21.23828125 83.48828125 C-21.24235678 82.46179159 -21.2464323 81.43530193 -21.25063133 80.37770653 C-21.27150549 74.94264298 -21.28580028 69.50760476 -21.29516602 64.07250977 C-21.30622141 58.46133706 -21.34060763 52.85056192 -21.38033772 47.23952961 C-21.40650231 42.92346974 -21.41485783 38.6075045 -21.41844749 34.2913723 C-21.42331538 32.22335316 -21.4349351 30.15533829 -21.45348549 28.08739662 C-21.47786876 25.18856115 -21.47691303 22.29075263 -21.4699707 19.3918457 C-21.48278076 18.5411853 -21.49559082 17.6905249 -21.50878906 16.81408691 C-21.4587438 11.0651967 -20.28237055 7.74351905 -17 3 C-12.06650327 -1.31020699 -6.12300637 -1.96932183 0 0 Z " fill="#FDFDFD" transform="translate(428,193)"/>
<path d="M0 0 C3.35045135 2.61779737 4.96415403 4.98175664 6.15234375 8.9921875 C6.44378791 12.02151186 6.44611446 15.03601252 6.44287109 18.07763672 C6.45294693 19.43711929 6.45294693 19.43711929 6.46322632 20.82406616 C6.48219747 23.81505847 6.48613002 26.8058263 6.48828125 29.796875 C6.49470957 31.88046358 6.50143796 33.96405125 6.50845337 36.04763794 C6.52042377 40.41377861 6.52413441 44.77984017 6.52294922 49.14599609 C6.522746 54.73357183 6.55005281 60.32063915 6.58449364 65.90809441 C6.60675862 70.21129678 6.61078688 74.51437669 6.60972977 78.81763077 C6.61208614 80.87726723 6.62091171 82.93690705 6.6363945 84.99648666 C6.65604687 87.88066723 6.65021931 90.76375001 6.63818359 93.64794922 C6.64942261 94.49389648 6.66066162 95.33984375 6.67224121 96.21142578 C6.61163368 101.94294838 5.44272124 105.27151673 2.15234375 109.9921875 C-1.58038229 113.01872213 -5.07184824 113.82750447 -9.84765625 113.9921875 C-15.06038746 112.37444333 -18.31944714 110.14302175 -21.84765625 105.9921875 C-23.16843035 102.02986521 -23.00342096 98.2334593 -23.00878906 94.10205078 C-23.01623642 92.73818741 -23.01623642 92.73818741 -23.02383423 91.34677124 C-23.03845344 88.33533983 -23.04525717 85.32396108 -23.05078125 82.3125 C-23.05653254 80.2212626 -23.06229027 78.13002521 -23.0680542 76.03878784 C-23.07856325 71.6523209 -23.08440667 67.26587229 -23.08789062 62.87939453 C-23.09337765 57.25803779 -23.11741064 51.63692299 -23.14586258 46.01564217 C-23.16448278 41.6953765 -23.16969422 37.3751692 -23.1712265 33.05486679 C-23.17425453 30.98241731 -23.18228811 28.90996889 -23.19541168 26.83755875 C-23.2124604 23.93855601 -23.21059482 21.04014576 -23.20410156 18.14111328 C-23.21331635 17.28483337 -23.22253113 16.42855347 -23.23202515 15.54632568 C-23.18743503 9.19332219 -21.66534843 6.04291714 -17.41015625 1.2421875 C-12.59061206 -2.9896074 -5.63756286 -3.07503429 0 0 Z " fill="#FDFDFD" transform="translate(86.84765625,194.0078125)"/>
</svg>
